<svg width="18" height="18" viewBox="0 0 18 18" fill="none" xmlns="http://www.w3.org/2000/svg">
<path fill-rule="evenodd" clip-rule="evenodd" d="M9.00002 0.666748C6.73669 0.666748 6.45335 0.676748 5.56419 0.716748C4.67752 0.757581 4.07169 0.898415 3.54169 1.10425C2.98543 1.31329 2.48148 1.64119 2.06502 2.06508C1.64115 2.48156 1.31325 2.9855 1.10419 3.54175C0.898354 4.07175 0.75752 4.67758 0.716687 5.56425C0.675854 6.45341 0.666687 6.73675 0.666687 9.00008C0.666687 11.2634 0.675854 11.5467 0.716687 12.4359C0.75752 13.3226 0.898354 13.9284 1.10419 14.4584C1.31327 15.0147 1.64117 15.5186 2.06502 15.9351C2.48152 16.3589 2.98545 16.6868 3.54169 16.8959C4.07169 17.1017 4.67752 17.2426 5.56419 17.2834C6.45335 17.3234 6.73669 17.3334 9.00002 17.3334C11.2634 17.3334 11.5467 17.3234 12.4359 17.2834C13.3225 17.2426 13.9284 17.1017 14.4584 16.8959C15.0146 16.6869 15.5185 16.359 15.935 15.9351C16.3589 15.5186 16.6868 15.0147 16.8959 14.4584C17.1017 13.9284 17.2425 13.3226 17.2834 12.4359C17.3234 11.5467 17.3334 11.2634 17.3334 9.00008C17.3334 6.73675 17.3234 6.45341 17.2834 5.56425C17.2425 4.67758 17.1017 4.07175 16.8959 3.54175C16.6868 2.9855 16.3589 2.48156 15.935 2.06508C15.5186 1.64119 15.0146 1.31329 14.4584 1.10425C13.9284 0.898415 13.3225 0.757581 12.4359 0.716748C11.5467 0.676748 11.2634 0.666748 9.00002 0.666748ZM9.00002 2.16841C11.225 2.16841 11.4884 2.17675 12.3667 2.21675C13.18 2.25425 13.6209 2.38925 13.915 2.50341C14.3034 2.65508 14.5817 2.83591 14.8734 3.12675C15.165 3.41841 15.345 3.69675 15.4967 4.08508C15.61 4.37925 15.7467 4.82008 15.7834 5.63258C15.8234 6.51175 15.8317 6.77425 15.8317 9.00008C15.8317 11.2251 15.8234 11.4884 15.7834 12.3667C15.7459 13.1801 15.61 13.6209 15.4967 13.9151C15.3631 14.2771 15.1501 14.6045 14.8734 14.8734C14.5817 15.1651 14.3034 15.3451 13.915 15.4967C13.6209 15.6101 13.18 15.7467 12.3675 15.7834C11.4892 15.8234 11.2259 15.8317 9.00002 15.8317C6.77502 15.8317 6.51085 15.8234 5.63335 15.7834C4.82002 15.7459 4.37919 15.6101 4.08502 15.4967C3.72301 15.3632 3.39554 15.1502 3.12669 14.8734C2.8499 14.6046 2.6369 14.2771 2.50335 13.9151C2.38919 13.6209 2.25335 13.1801 2.21669 12.3676C2.17669 11.4884 2.16835 11.2259 2.16835 9.00008C2.16835 6.77508 2.17669 6.51175 2.21669 5.63341C2.25419 4.82008 2.38919 4.37925 2.50335 4.08508C2.65502 3.69675 2.83585 3.41841 3.12669 3.12675C3.41835 2.83508 3.69669 2.65508 4.08502 2.50341C4.37919 2.38925 4.82002 2.25341 5.63252 2.21675C6.51169 2.17675 6.77419 2.16841 9.00002 2.16841ZM9.00002 11.7776C8.26338 11.7776 7.55691 11.485 7.03603 10.9641C6.51515 10.4432 6.22252 9.73672 6.22252 9.00008C6.22252 8.26344 6.51515 7.55698 7.03603 7.03609C7.55691 6.51521 8.26338 6.22258 9.00002 6.22258C9.73666 6.22258 10.4431 6.51521 10.964 7.03609C11.4849 7.55698 11.7775 8.26344 11.7775 9.00008C11.7775 9.73672 11.4849 10.4432 10.964 10.9641C10.4431 11.485 9.73666 11.7776 9.00002 11.7776M9.00002 4.72091C8.43807 4.72091 7.88163 4.8316 7.36245 5.04665C6.84328 5.2617 6.37155 5.5769 5.97419 5.97425C5.57684 6.37161 5.26163 6.84334 5.04659 7.36252C4.83154 7.88169 4.72085 8.43813 4.72085 9.00008C4.72085 9.56203 4.83154 10.1185 5.04659 10.6376C5.26163 11.1568 5.57684 11.6286 5.97419 12.0259C6.37155 12.4233 6.84328 12.7385 7.36245 12.9535C7.88163 13.1686 8.43807 13.2792 9.00002 13.2792C10.1349 13.2792 11.2233 12.8284 12.0258 12.0259C12.8283 11.2234 13.2792 10.135 13.2792 9.00008C13.2792 7.86518 12.8283 6.77675 12.0258 5.97425C11.2233 5.17175 10.1349 4.72091 9.00002 4.72091M14.4484 4.55175C14.4484 4.68307 14.4225 4.81311 14.3722 4.93443C14.322 5.05576 14.2483 5.166 14.1555 5.25886C14.0626 5.35171 13.9524 5.42537 13.831 5.47563C13.7097 5.52588 13.5797 5.55175 13.4484 5.55175C13.317 5.55175 13.187 5.52588 13.0657 5.47563C12.9443 5.42537 12.8341 5.35171 12.7412 5.25886C12.6484 5.166 12.5747 5.05576 12.5245 4.93443C12.4742 4.81311 12.4484 4.68307 12.4484 4.55175C12.4484 4.28653 12.5537 4.03218 12.7412 3.84464C12.9288 3.6571 13.1831 3.55175 13.4484 3.55175C13.7136 3.55175 13.9679 3.6571 14.1555 3.84464C14.343 4.03218 14.4484 4.28653 14.4484 4.55175" fill="white"/>
</svg>
