<svg width="16" height="14" viewBox="0 0 16 14" fill="none" xmlns="http://www.w3.org/2000/svg">
<path d="M15.5 2.34926C14.9383 2.5979 14.3425 2.76076 13.7325 2.83239C14.3747 2.44781 14.8554 1.84301 15.085 1.13051C14.481 1.48847 13.8205 1.74124 13.1319 1.87801C12.71 1.42698 12.1621 1.11332 11.5596 0.97782C10.9571 0.842316 10.3277 0.891237 9.7533 1.11822C9.17893 1.34521 8.68614 1.73975 8.33901 2.25056C7.99188 2.76136 7.80646 3.36479 7.80687 3.98239C7.80687 4.22426 7.83375 4.45864 7.88813 4.68301C6.66407 4.62276 5.46645 4.30527 4.3733 3.75121C3.28016 3.19716 2.31603 2.41898 1.54375 1.46739C1.26936 1.93708 1.12544 2.47155 1.12687 3.01551C1.12687 4.08239 1.66875 5.02489 2.49625 5.57676C2.00747 5.56125 1.52954 5.4288 1.1025 5.19051V5.22989C1.10208 5.94062 1.34777 6.62958 1.79782 7.17966C2.24787 7.72975 2.87451 8.10703 3.57125 8.24739C3.11817 8.37164 2.64258 8.39003 2.18125 8.30114C2.37776 8.91258 2.76034 9.44737 3.27555 9.83081C3.79077 10.2143 4.41288 10.4272 5.055 10.4399C4.41665 10.9409 3.68576 11.3112 2.90415 11.5294C2.12255 11.7477 1.30558 11.8096 0.5 11.7118C1.90658 12.6169 3.54421 13.0976 5.21687 13.0961C10.8781 13.0961 13.9744 8.40614 13.9744 4.33864C13.9744 4.20739 13.9694 4.07239 13.9644 3.94051C14.566 3.50492 15.0858 2.96643 15.5 2.34989V2.34926Z" fill="white"/>
</svg>
